<svg width="237" height="91" viewBox="0 0 237 91" fill="none" xmlns="http://www.w3.org/2000/svg">
<path d="M222.143 16.5C217.743 17.3 213.643 20.5 209.843 26.2C208.443 28.2 207.343 30.6 206.343 33.3C205.343 36 204.943 37.8 205.143 38.7C205.343 39.6 205.643 40 206.143 39.9C206.843 39.8 208.643 38 211.343 34.6C214.143 31.2 215.943 28.7 216.743 27.2C217.643 25.4 219.443 21.9 222.143 16.5ZM226.443 11.3C228.343 11 229.443 11.4 229.743 12.8C229.843 13.5 229.843 14.1 229.543 14.5C229.243 14.9 228.743 16.1 227.943 18.2C227.143 20.3 226.443 22.9 225.643 26.1C224.843 29.3 224.443 31.9 224.443 34.1C224.443 34.4 224.443 34.7 224.543 35.2C224.743 36.6 225.343 37.2 226.043 37.1C226.843 37 227.643 36.4 228.543 35.5C229.443 34.6 230.243 33.6 230.943 32.7C231.643 31.7 232.243 30.7 232.943 29.7C233.543 28.7 233.943 28.1 234.043 27.9C234.143 27.8 234.443 27.7 234.743 27.6C235.243 27.5 235.543 27.8 235.843 28.5C236.043 29.2 236.243 30 236.443 30.8C236.543 31.6 236.643 32.2 236.543 32.5C236.043 34.1 234.743 36.1 232.543 38.6C230.343 41.1 228.243 42.5 226.243 42.9C224.143 43.3 222.543 42.9 221.343 41.8C220.143 40.7 219.443 39.4 219.143 37.9C218.843 36.4 218.943 35 219.243 33.7C217.643 36.8 215.543 39.6 213.143 42C210.743 44.4 208.643 45.8 206.943 46.1C205.243 46.4 203.643 46.1 202.343 45.3C200.743 44.2 199.643 42.6 199.243 40.2C198.843 37.9 198.943 35.5 199.543 32.9C200.143 30.4 201.143 28 202.543 25.7C203.943 23.5 205.443 21.4 207.143 19.4C210.843 15.3 214.443 13 218.043 12.3C219.443 12.1 220.543 12.1 221.543 12.4C222.443 12.7 223.143 13.2 223.543 13.8C224.043 12.8 224.443 12.1 224.743 11.8C225.043 11.7 225.643 11.5 226.443 11.3ZM176.143 42.4L176.243 43C176.343 43.6 176.743 44.1 177.243 44.5C177.843 44.9 178.343 45 178.743 45C181.843 44.5 184.443 43.5 186.643 42.2C188.843 40.9 189.843 39.7 189.743 38.8C189.643 38.4 189.143 38.1 188.243 37.9C187.343 37.7 185.843 37.6 183.743 37.5C181.643 37.4 180.043 37.3 179.143 37.2C178.143 37.1 177.443 37 176.843 36.8C176.243 36.7 175.643 36.4 175.043 36.1C173.643 35.5 172.843 34.3 172.543 32.6C172.243 30.9 172.543 29.1 173.543 27.3C174.443 25.4 175.743 23.7 177.443 22.2C179.143 20.7 180.943 19.3 182.943 18C186.843 15.5 190.343 14 193.143 13.5C195.943 13 197.843 13.3 198.743 14.4C199.043 14.8 199.243 15.3 199.343 15.8V16.1C199.543 17.5 199.443 18.6 199.043 19.4C198.643 20.3 197.843 21.1 196.643 22C195.543 22.8 194.543 23.3 193.843 23.4C193.143 23.5 192.643 23.6 192.443 23.5C192.243 23.4 192.043 23.3 191.943 23.2C191.743 23.1 191.643 23 191.443 22.9C191.243 22.9 191.143 22.7 191.043 22.4C190.943 22.1 191.043 21.8 191.243 21.4C191.443 21 191.543 20.7 191.643 20.3C189.943 20.7 188.243 21.4 186.543 22.4C184.843 23.4 183.343 24.5 182.243 25.6C181.043 26.7 180.143 27.7 179.443 28.7C178.743 29.7 178.343 30.3 178.443 30.7C178.543 31.1 179.143 31.3 180.343 31.3C185.843 31.4 189.543 31.7 191.343 32.2C193.143 32.7 194.443 33.4 195.243 34.2C196.043 35.1 196.543 35.9 196.643 36.7C196.943 38.3 196.543 40 195.543 41.7C194.443 43.4 193.043 44.9 191.343 46.1C187.543 48.9 184.143 50.5 181.043 51C177.943 51.5 175.743 51.4 174.443 50.7C173.143 50 172.343 49 172.143 47.7C171.943 46.4 172.043 45.2 172.443 44C172.943 42.8 173.643 42.1 174.643 41.9C175.543 41.6 176.143 41.8 176.143 42.4ZM161.043 27.2C156.643 28 152.543 31.2 148.743 36.9C147.343 38.9 146.243 41.3 145.243 44C144.243 46.7 143.843 48.5 144.043 49.4C144.243 50.3 144.543 50.7 145.043 50.6C145.743 50.5 147.543 48.7 150.343 45.3C153.143 41.9 154.943 39.4 155.743 37.9C156.643 36.2 158.443 32.6 161.043 27.2ZM165.443 22.1C167.343 21.8 168.443 22.2 168.743 23.6C168.843 24.3 168.843 24.9 168.543 25.3C168.243 25.7 167.743 26.9 167.043 29C166.243 31.1 165.543 33.7 164.743 36.9C163.943 40.1 163.543 42.7 163.543 44.9C163.543 45.2 163.543 45.5 163.643 46C163.843 47.4 164.443 48 165.143 47.9C165.943 47.8 166.743 47.2 167.643 46.3C168.543 45.4 169.343 44.4 170.043 43.5C170.743 42.5 171.343 41.5 172.043 40.5C172.643 39.5 173.043 38.9 173.143 38.7C173.243 38.6 173.543 38.5 173.843 38.4C174.343 38.3 174.643 38.6 174.943 39.3C175.143 40 175.343 40.8 175.443 41.6C175.543 42.4 175.643 43 175.543 43.3C175.043 44.9 173.743 46.9 171.543 49.4C169.343 51.9 167.243 53.3 165.243 53.7C163.143 54.1 161.543 53.7 160.343 52.6C159.143 51.5 158.443 50.2 158.143 48.7C157.843 47.2 157.943 45.8 158.243 44.5C156.643 47.6 154.543 50.4 152.143 52.8C149.743 55.2 147.643 56.6 145.943 56.9C144.243 57.2 142.643 56.9 141.343 56.1C139.743 55.1 138.643 53.4 138.243 51C137.843 48.7 137.943 46.3 138.543 43.7C139.143 41.2 140.143 38.8 141.543 36.5C142.943 34.3 144.443 32.2 146.243 30.2C149.943 26.1 153.543 23.8 157.143 23.1C158.543 22.9 159.743 22.9 160.643 23.2C161.643 23.5 162.243 24 162.643 24.6C163.143 23.6 163.543 22.9 163.843 22.6C163.943 22.4 164.643 22.2 165.443 22.1ZM113.043 62.4L110.443 62.3C109.743 62.4 109.043 62 108.343 61.2C108.143 61 108.043 60.9 108.043 60.8C108.043 60.8 107.943 60.7 107.943 60.6C107.943 60.5 107.943 60.4 107.943 60.3C107.943 60.2 108.043 60 108.043 59.7C108.143 59.4 108.143 59.2 108.143 58.9C108.343 57 111.343 47.6 117.143 30.8C122.943 14 125.943 5.3 126.243 4.8C126.543 4.3 126.743 3.89999 126.943 3.59999C127.143 3.39999 127.343 3.09999 127.543 2.89999C127.743 2.69999 127.943 2.6 128.043 2.5C128.143 2.4 128.343 2.29999 128.643 2.09999C128.943 1.89999 129.343 1.7 129.643 1.5C129.943 1.3 130.343 1.1 130.743 0.800003C131.143 0.500003 131.343 0.299997 131.543 0.199997C131.643 0.0999969 131.843 0 132.143 0C132.343 0 132.643 -3.05474e-06 132.843 0.199997C133.143 0.399997 133.243 0.7 133.343 1V1.3C133.343 1.8 131.043 8.5 126.543 21.3C122.043 34.1 119.643 41.1 119.243 42.3C121.143 41.2 123.743 38.7 127.043 34.9C130.343 31.1 132.043 28.7 131.843 27.6C131.743 26.6 131.943 25.8 132.543 25.2C133.143 24.6 133.843 24.3 134.643 24.1C135.443 24 136.143 24.1 136.743 24.5C137.343 24.9 137.843 25.7 137.943 26.9C138.143 28.1 137.743 29.7 136.743 31.8C135.743 33.9 134.443 35.8 132.943 37.7C129.643 41.7 126.743 44.5 124.343 46C127.443 51.2 130.243 53.6 132.943 53.1C134.343 52.6 135.943 51.1 137.643 48.6C138.343 47.7 138.943 46.7 139.543 45.8C140.143 44.9 140.543 44.3 140.643 44.1C140.743 43.9 141.043 43.8 141.343 43.8C141.843 43.7 142.143 44 142.443 44.7C142.643 45.4 142.843 46.2 143.043 47C143.143 47.8 143.243 48.4 143.143 48.7C142.643 50.3 141.343 52.3 139.143 54.8C136.943 57.3 134.743 58.8 132.543 59.2C130.943 59.5 129.543 59.4 128.543 59C127.443 58.6 126.643 58.2 126.043 57.9C125.443 57.6 124.743 57.1 124.143 56.5C123.443 55.9 122.843 55.4 122.443 55C121.943 54.6 121.443 54 120.843 53.3C120.243 52.6 119.743 52 119.543 51.7C119.243 51.4 118.843 50.9 118.343 50.2C117.843 49.5 117.443 49.1 117.443 49C117.143 50 116.843 51.1 116.443 52.3C116.043 53.5 115.743 54.6 115.443 55.6C115.143 56.6 114.843 57.6 114.643 58.4C114.343 59.3 114.143 60 114.043 60.5C113.843 61.1 113.843 61.3 113.743 61.4C113.643 62.1 113.443 62.3 113.043 62.4ZM101.243 36.1C98.3429 37.3 95.7429 38.8 93.4429 40.7C91.0429 42.6 89.2429 44.6 87.8428 46.6C86.4428 48.6 85.2429 50.6 84.3428 52.5C82.6429 56.2 81.9429 59 82.2429 60.8C82.3429 61.2 82.4429 61.4 82.6429 61.4C82.8428 61.4 83.3429 61 83.9429 60.5C84.6429 59.9 85.5429 58.9 86.7429 57.6C87.9429 56.2 89.2429 54.6 90.6429 52.8C94.0429 48.5 97.5429 43 101.243 36.1ZM86.8428 39.7C89.0428 37.6 91.2429 35.8 93.4429 34.5C95.6429 33.2 97.6429 32.3 99.3428 32C101.043 31.7 102.243 32 102.943 32.9C103.743 31.6 104.843 30.7 106.343 30.4C106.743 30.3 107.343 30.2 107.943 30.1C108.543 30 108.943 30 109.143 30.1C109.343 30.2 109.543 30.5 109.743 31C109.943 31.4 110.043 31.7 110.143 31.7C110.143 31.7 110.243 31.8 110.243 31.9C110.243 32 110.243 32.2 110.143 32.4C110.043 32.6 109.943 32.8 109.743 33C109.643 33.2 109.543 33.3 109.543 33.3C105.343 42.4 101.143 52.7 97.0428 64.2C102.143 57.7 106.943 52.9 111.343 49.7C111.643 49.5 111.943 49.4 112.143 49.3C112.543 49.2 112.843 49.4 113.043 49.9C113.243 50.4 113.443 51.1 113.643 52.1C113.843 53.1 113.843 53.7 113.843 53.9C113.743 54.1 113.243 54.7 112.343 55.6C111.343 56.5 110.143 57.6 108.643 59C107.143 60.4 105.543 61.9 103.843 63.6C99.8428 67.6 96.6429 71.7 94.2429 75.7C91.2429 81 89.1429 85.2 87.9429 88.4C87.5429 89.6 86.6429 90.3 85.1429 90.6C82.2429 91.1 80.5428 90 80.0428 87.2C79.5428 84.4 80.4429 81.3 82.6429 77.9C84.3428 75.4 85.8428 73.2 87.3428 71.5C88.8428 69.8 89.6429 68.9 89.7429 68.7C91.1429 65.5 93.0428 61 95.3428 55.2C93.0428 58.6 90.8428 61.4 88.5428 63.5C86.2428 65.7 84.4429 66.9 83.1429 67.1C79.2429 67.8 76.9428 66.5 76.3428 63.1C75.8428 60.4 76.0429 57.6 76.9429 54.7C77.8429 51.7 79.1429 49 80.9429 46.5C82.6429 44.2 84.6429 41.8 86.8428 39.7ZM67.6429 63.3C67.8428 64.4 68.7429 64.9 70.2429 64.6C71.0429 64.5 72.0429 63.9 73.1429 62.8C74.2429 61.8 75.2428 60.7 76.0428 59.5C78.2428 56.4 79.5428 54.8 79.8428 54.7C80.5428 54.6 81.0428 55.5 81.3428 57.4C81.6429 59.3 81.3429 60.8 80.2429 61.7C77.1429 65.7 74.6429 68.2 72.8428 69.2C71.7429 69.8 70.5429 70.2 69.2429 70.4C67.8429 70.6 66.4429 70.3 64.9429 69.4C63.4429 68.5 62.4429 67.2 62.1429 65.5C61.8429 63.8 61.9429 61.9 62.4429 59.6C62.9429 57.3 63.5429 55.4 64.1429 53.7C64.8428 52 65.6428 50.1 66.5428 47.9C67.5428 45.7 68.0428 44.3 68.0428 43.8L67.9429 43.7C67.1429 43.9 65.3428 46 62.5429 49.8C59.7429 53.6 57.5429 57 55.7429 59.8C53.9429 62.6 51.9429 66.3 49.6429 70.8C49.0429 72.1 48.4429 72.7 47.8429 72.8C47.3429 72.9 46.5429 72.9 45.5429 72.7C44.5429 72.5 43.9429 72.3 43.7429 72.2C43.5429 72.1 43.3429 71.9 43.3429 71.6C43.2429 71.3 43.3429 70.9 43.4429 70.4C43.5429 69.9 43.6429 69.5 43.7429 69.2C43.8429 68.9 44.0429 68.4 44.3429 67.7C44.6429 67 45.1429 65.6 45.9429 63.4C46.7429 61.2 47.9429 57.9 49.6429 53.6C51.3429 49.2 52.2429 46.6 52.6429 45.7C53.3429 43.8 53.9429 42.5 54.3429 41.6C55.2429 39.9 57.0429 38.8 59.8429 38.4C60.4429 38.3 60.8429 38.6 60.9429 39.4C61.1429 40.6 60.4429 43.1 58.8429 46.8L57.6429 49.5C61.2429 43.8 64.4429 40 67.2429 38.2C68.6429 37.3 69.9428 36.7 71.0428 36.5C72.2428 36.3 73.2428 36.4 74.0428 37C74.8428 37.5 75.3429 38.2 75.4429 38.9C75.5429 39.7 75.4429 40.7 75.1429 41.9C74.8428 43.1 74.4428 44.2 74.0428 45.1C73.6428 46.1 73.1429 47.3 72.4429 48.7C71.7429 50.2 71.4428 51 71.3428 51.1C71.2429 51.2 71.1429 51.6 70.9429 52.1C70.7429 52.7 70.5429 53.1 70.4429 53.3C70.3429 53.6 70.1429 54 69.8428 54.7C69.5428 55.4 69.3429 55.9 69.2429 56.3C69.0429 56.7 68.9429 57.2 68.6429 57.9C68.4429 58.5 68.2429 59.1 68.1429 59.5C68.0429 59.9 67.9429 60.4 67.7429 60.9C67.5429 62 67.5429 62.7 67.6429 63.3ZM42.4429 23.8C34.3429 32.6 27.2429 42.1 21.0429 52.5C25.6429 51.8 30.2429 51.2 34.9429 50.6C37.8429 40.1 40.3429 31.1 42.4429 23.8ZM44.1429 17.9C44.6429 16 45.0429 15 45.3429 14.9H45.5429C45.9429 14.8 46.7429 15.1 48.1429 15.7C49.4429 16.3 50.2429 17 50.3429 17.7C50.5429 18.7 48.6429 27 44.5429 42.7C40.5429 58.4 38.2429 67.1 37.5429 69.1C36.8429 71 36.4429 72.3 36.1429 73C35.8429 73.7 35.5429 74.4 35.0429 75.2C34.1429 76.8 32.9429 77.7 31.2429 78C30.5429 78.1 30.0429 78.3 29.5429 78.5C29.0429 78.8 28.7429 78.9 28.6429 78.9C27.8429 79 27.3429 78.9 27.3429 78.5C27.3429 78.4 27.3429 78.1 27.5429 77.5C27.6429 76.9 29.4429 70.2 33.0429 57.3C26.9429 58.1 21.6429 58.9 17.0429 59.6C13.6429 65.9 10.6429 72.4 8.14286 79C7.84286 79.9 7.54285 80.6 7.24285 81C6.94285 81.4 6.44285 81.7 5.74285 81.8C5.04285 81.9 4.34286 81.7 3.44286 81.2C2.54286 80.7 2.04285 79.9 1.84285 79C1.34285 76.4 3.74285 70.4 8.84285 60.8C5.74285 61.3 3.74286 61.8 2.94286 62.1C2.14286 62.4 1.64285 62.6 1.34285 62.6C0.642853 62.7 0.242857 62.2 0.0428571 61C-0.157143 59.8 0.342857 58.7 1.54286 57.6C2.74286 56.5 4.54285 55.7 6.84285 55.3C7.04285 55.3 7.34285 55.2 7.84285 55.1C9.44285 54.8 11.0429 54.4 12.7429 54.1C17.1429 46.5 21.9429 39.4 27.0429 32.7C32.1429 26 36.7429 21.1 40.7429 18.1C41.4429 17.6 41.9429 17.3 42.3429 17.3C42.8429 17.2 43.4429 17.4 44.1429 17.9Z" fill="#296BFF"/>
</svg>
